<svg width="2752" height="728" viewBox="0 0 2752 728" fill="none" xmlns="http://www.w3.org/2000/svg">
<path d="M46.67 481.36V480.36H45.67V481.36H46.67ZM46.67 712H45.67L45.67 713H46.67L46.67 712ZM117.97 712V713H118.97V712H117.97ZM117.97 559.17L118.669 558.454L116.97 556.796V559.17H117.97ZM274.52 712L273.821 712.716L274.113 713H274.52V712ZM345.82 712V713H346.82V712H345.82ZM345.82 481.36H346.82V480.36H345.82V481.36ZM274.52 481.36V480.36H273.52V481.36H274.52ZM274.52 626.44L273.818 627.152L275.52 628.829V626.44H274.52ZM127.27 481.36L127.972 480.648L127.68 480.36H127.27V481.36ZM45.67 481.36L45.67 712H47.67L47.67 481.36H45.67ZM46.67 713H117.97V711H46.67L46.67 713ZM118.97 712L118.97 559.17H116.97L116.97 712H118.97ZM117.271 559.886L273.821 712.716L275.219 711.284L118.669 558.454L117.271 559.886ZM274.52 713H345.82V711H274.52V713ZM346.82 712L346.82 481.36H344.82L344.82 712H346.82ZM345.82 480.36H274.52V482.36H345.82V480.36ZM273.52 481.36V626.44H275.52V481.36H273.52ZM275.222 625.728L127.972 480.648L126.568 482.072L273.818 627.152L275.222 625.728ZM127.27 480.36H46.67V482.36H127.27V480.36ZM552.931 476.33C479.776 476.33 438.853 494.58 416.235 518.217C393.621 541.851 389.491 570.677 389.491 591.41H391.491C391.491 570.913 395.577 542.699 417.68 519.6C439.78 496.505 480.077 478.33 552.931 478.33V476.33ZM389.491 591.41V600.71H391.491V591.41H389.491ZM389.491 600.71C389.491 621.134 393.621 650.265 416.23 674.284C438.845 698.311 479.768 717.03 552.931 717.03V715.03C480.085 715.03 439.788 696.394 417.686 672.913C395.577 649.425 391.491 620.896 391.491 600.71H389.491ZM552.931 717.03L566.262 717.03V715.03L552.931 715.03V717.03ZM566.262 717.03C639.116 717.03 679.961 698.31 702.576 674.284C725.183 650.266 729.392 621.136 729.392 600.71H727.392C727.392 620.894 723.23 649.424 701.12 672.913C679.017 696.395 638.797 715.03 566.262 715.03V717.03ZM729.392 600.71V591.41H727.392V600.71H729.392ZM729.392 591.41C729.392 570.672 725.105 541.848 702.453 518.217C679.798 494.582 638.955 476.33 566.262 476.33V478.33C638.648 478.33 678.87 496.503 701.01 519.601C723.153 542.702 727.392 570.918 727.392 591.41H729.392ZM566.262 476.33H552.931V478.33H566.262V476.33ZM651.751 597.92C651.751 611.053 647.863 626.245 634.493 638.171C621.106 650.114 598.058 658.92 559.441 658.92V660.92C598.325 660.92 621.932 652.056 635.825 639.664C649.735 627.255 653.751 611.447 653.751 597.92H651.751ZM559.441 658.92C520.519 658.92 497.475 649.883 484.165 637.752C470.87 625.635 467.131 610.286 467.131 597.3H465.131C465.131 610.664 468.988 626.625 482.818 639.23C496.633 651.822 520.244 660.92 559.441 660.92V658.92ZM467.131 597.3V593.58H465.131V597.3H467.131ZM467.131 593.58C467.131 580.581 470.567 565.79 483.688 554.224C496.837 542.633 519.88 534.13 559.441 534.13V532.13C519.643 532.13 496.031 540.677 482.365 552.724C468.671 564.795 465.131 580.229 465.131 593.58H467.131ZM559.441 534.13C598.378 534.13 621.427 542.631 634.735 554.228C648.016 565.802 651.751 580.599 651.751 593.58H653.751C653.751 580.211 649.892 564.783 636.048 552.72C622.231 540.679 598.625 532.13 559.441 532.13V534.13ZM651.751 593.58V597.92H653.751V593.58H651.751ZM853.719 712H852.719V713H853.719V712ZM926.569 712V713H927.569V712H926.569ZM926.569 535.92V534.92H925.569V535.92H926.569ZM1026.08 535.92V536.92H1027.08V535.92H1026.08ZM1026.08 481.36H1027.08V480.36H1026.08V481.36ZM754.519 481.36V480.36H753.519V481.36H754.519ZM754.519 535.92H753.519V536.92H754.519V535.92ZM853.719 535.92H854.719V534.92H853.719V535.92ZM853.719 713L926.569 713V711L853.719 711V713ZM927.569 712V535.92H925.569V712H927.569ZM926.569 536.92L1026.08 536.92V534.92L926.569 534.92V536.92ZM1027.08 535.92V481.36H1025.08V535.92H1027.08ZM1026.08 480.36L754.519 480.36V482.36L1026.08 482.36V480.36ZM753.519 481.36V535.92H755.519V481.36H753.519ZM754.519 536.92H853.719V534.92H754.519V536.92ZM852.719 535.92V712H854.719V535.92H852.719ZM1070.92 481.36V480.36H1069.92V481.36H1070.92ZM1070.92 712H1069.92V713H1070.92V712ZM1142.84 712V713H1143.84V712H1142.84ZM1142.84 620.55V619.55H1141.84V620.55H1142.84ZM1305.28 620.55V621.55H1306.28V620.55H1305.28ZM1305.28 567.85H1306.28V566.85H1305.28V567.85ZM1142.84 567.85H1141.84V568.85H1142.84V567.85ZM1142.84 533.75V532.75H1141.84V533.75H1142.84ZM1309.31 533.75V534.75H1310.31V533.75H1309.31ZM1309.31 481.36H1310.31V480.36H1309.31V481.36ZM1069.92 481.36V712H1071.92V481.36H1069.92ZM1070.92 713H1142.84V711H1070.92V713ZM1143.84 712V620.55H1141.84V712H1143.84ZM1142.84 621.55H1305.28V619.55H1142.84V621.55ZM1306.28 620.55V567.85H1304.28V620.55H1306.28ZM1305.28 566.85H1142.84V568.85H1305.28V566.85ZM1143.84 567.85V533.75H1141.84V567.85H1143.84ZM1142.84 534.75H1309.31V532.75H1142.84V534.75ZM1310.31 533.75V481.36H1308.31V533.75H1310.31ZM1309.31 480.36L1070.92 480.36V482.36L1309.31 482.36V480.36ZM1511.49 476.33C1438.33 476.33 1397.41 494.58 1374.79 518.217C1352.17 541.851 1348.05 570.677 1348.05 591.41H1350.05C1350.05 570.913 1354.13 542.699 1376.23 519.6C1398.33 496.505 1438.63 478.33 1511.49 478.33V476.33ZM1348.05 591.41V600.71H1350.05V591.41H1348.05ZM1348.05 600.71C1348.05 621.134 1352.18 650.265 1374.78 674.284C1397.4 698.311 1438.32 717.03 1511.49 717.03V715.03C1438.64 715.03 1398.34 696.394 1376.24 672.913C1354.13 649.425 1350.05 620.896 1350.05 600.71H1348.05ZM1511.49 717.03H1524.82V715.03H1511.49V717.03ZM1524.82 717.03C1597.67 717.03 1638.51 698.31 1661.13 674.284C1683.74 650.266 1687.95 621.136 1687.95 600.71H1685.95C1685.95 620.894 1681.78 649.424 1659.67 672.913C1637.57 696.395 1597.35 715.03 1524.82 715.03V717.03ZM1687.95 600.71V591.41H1685.95V600.71H1687.95ZM1687.95 591.41C1687.95 570.672 1683.66 541.848 1661.01 518.217C1638.35 494.582 1597.51 476.33 1524.82 476.33V478.33C1597.2 478.33 1637.42 496.503 1659.56 519.601C1681.71 542.702 1685.95 570.918 1685.95 591.41H1687.95ZM1524.82 476.33H1511.49V478.33H1524.82V476.33ZM1610.31 597.92C1610.31 611.053 1606.42 626.245 1593.05 638.171C1579.66 650.114 1556.61 658.92 1518 658.92V660.92C1556.88 660.92 1580.49 652.056 1594.38 639.664C1608.29 627.255 1612.31 611.447 1612.31 597.92H1610.31ZM1518 658.92C1479.07 658.92 1456.03 649.883 1442.72 637.752C1429.42 625.635 1425.69 610.286 1425.69 597.3H1423.69C1423.69 610.664 1427.54 626.625 1441.37 639.23C1455.19 651.822 1478.8 660.92 1518 660.92V658.92ZM1425.69 597.3V593.58H1423.69V597.3H1425.69ZM1425.69 593.58C1425.69 580.581 1429.12 565.79 1442.24 554.224C1455.39 542.633 1478.43 534.13 1518 534.13V532.13C1478.2 532.13 1454.59 540.677 1440.92 552.724C1427.22 564.795 1423.69 580.229 1423.69 593.58H1425.69ZM1518 534.13C1556.93 534.13 1579.98 542.631 1593.29 554.228C1606.57 565.802 1610.31 580.599 1610.31 593.58H1612.31C1612.31 580.211 1608.45 564.783 1594.6 552.72C1580.79 540.679 1557.18 532.13 1518 532.13V534.13ZM1610.31 593.58V597.92H1612.31V593.58H1610.31ZM2025.33 481.36H2026.33V480.36H2025.33V481.36ZM1953.1 481.36V480.36H1952.1V481.36H1953.1ZM1801.2 481.36H1802.2V480.36H1801.2V481.36ZM1728.66 481.36V480.36H1727.66V481.36H1728.66ZM1883.66 716.41C1942.96 716.41 1978.68 696.631 1999.56 671.25C2020.4 645.908 2026.33 615.123 2026.33 593.27H2024.33C2024.33 614.817 2018.47 645.102 1998.01 669.98C1977.58 694.819 1942.47 714.41 1883.66 714.41V716.41ZM2026.33 593.27V481.36H2024.33V593.27H2026.33ZM2025.33 480.36H1953.1V482.36H2025.33V480.36ZM1952.1 481.36V588.93H1954.1V481.36H1952.1ZM1952.1 588.93C1952.1 603.679 1948.71 620.069 1937.77 632.762C1926.85 645.426 1908.25 654.58 1877.46 654.58V656.58C1908.66 656.58 1927.88 647.289 1939.28 634.068C1950.66 620.876 1954.1 603.941 1954.1 588.93H1952.1ZM1877.46 654.58C1846.19 654.58 1827.44 645.423 1816.48 632.761C1805.5 620.07 1802.2 603.683 1802.2 588.93H1800.2C1800.2 603.937 1803.56 620.875 1814.97 634.069C1826.41 647.292 1845.79 656.58 1877.46 656.58V654.58ZM1802.2 588.93V481.36H1800.2V588.93H1802.2ZM1801.2 480.36H1728.66V482.36H1801.2V480.36ZM1727.66 481.36V593.27H1729.66V481.36H1727.66ZM1727.66 593.27C1727.66 615.098 1732.72 645.893 1753.42 671.247C1774.15 696.641 1810.43 716.41 1872.5 716.41V714.41C1810.88 714.41 1775.24 694.809 1754.97 669.983C1734.67 645.117 1729.66 614.842 1729.66 593.27H1727.66ZM1872.5 716.41H1883.66V714.41H1872.5V716.41ZM2076.39 481.36V480.36H2075.39V481.36H2076.39ZM2076.39 712H2075.39V713H2076.39V712ZM2147.69 712V713H2148.69V712H2147.69ZM2147.69 559.17L2148.39 558.454L2146.69 556.796V559.17H2147.69ZM2304.24 712L2303.55 712.716L2303.84 713H2304.24V712ZM2375.54 712V713H2376.54V712H2375.54ZM2375.54 481.36H2376.54V480.36H2375.54V481.36ZM2304.24 481.36V480.36H2303.24V481.36H2304.24ZM2304.24 626.44L2303.54 627.152L2305.24 628.829V626.44H2304.24ZM2156.99 481.36L2157.7 480.648L2157.4 480.36H2156.99V481.36ZM2075.39 481.36V712H2077.39V481.36H2075.39ZM2076.39 713H2147.69V711H2076.39V713ZM2148.69 712V559.17H2146.69V712H2148.69ZM2147 559.886L2303.55 712.716L2304.94 711.284L2148.39 558.454L2147 559.886ZM2304.24 713L2375.54 713V711L2304.24 711V713ZM2376.54 712V481.36H2374.54V712H2376.54ZM2375.54 480.36L2304.24 480.36V482.36L2375.54 482.36V480.36ZM2303.24 481.36V626.44H2305.24V481.36H2303.24ZM2304.95 625.728L2157.7 480.648L2156.29 482.072L2303.54 627.152L2304.95 625.728ZM2156.99 480.36H2076.39V482.36H2156.99V480.36ZM2429.52 712H2428.52V713H2429.52V712ZM2429.52 481.36V480.36H2428.52V481.36H2429.52ZM2501.75 535.92V534.92H2500.75V535.92H2501.75ZM2501.75 656.51H2500.75V657.51H2501.75V656.51ZM2429.52 713H2582.66V711H2429.52V713ZM2582.66 713C2650.22 713 2691.11 697.315 2715.12 675.226C2739.14 653.124 2746.1 624.761 2746.1 599.78H2744.1C2744.1 624.399 2737.25 652.146 2713.77 673.754C2690.27 695.375 2649.94 711 2582.66 711V713ZM2746.1 599.78V590.48H2744.1V599.78H2746.1ZM2746.1 590.48C2746.1 564.406 2738.75 536.807 2714.48 515.751C2690.24 494.72 2649.27 480.36 2582.35 480.36V482.36C2649.03 482.36 2689.44 496.675 2713.17 517.262C2736.87 537.823 2744.1 564.784 2744.1 590.48H2746.1ZM2582.35 480.36H2429.52V482.36H2582.35V480.36ZM2428.52 481.36V712H2430.52V481.36H2428.52ZM2501.75 536.92H2576.77V534.92H2501.75V536.92ZM2576.77 536.92C2618.19 536.92 2641.07 545.813 2653.59 557.423C2666.08 569.01 2668.46 583.48 2668.46 595.13H2670.46C2670.46 583.22 2668.03 568.085 2654.95 555.957C2641.89 543.852 2618.42 534.92 2576.77 534.92V536.92ZM2668.46 595.13V596.99H2670.46V595.13H2668.46ZM2668.46 596.99C2668.46 608.621 2665.78 623.178 2653.12 634.85C2640.44 646.543 2617.57 655.51 2576.77 655.51V657.51C2617.81 657.51 2641.27 648.497 2654.48 636.32C2667.71 624.122 2670.46 608.919 2670.46 596.99H2668.46ZM2576.77 655.51H2501.75V657.51H2576.77V655.51ZM2502.75 656.51V535.92H2500.75V656.51H2502.75Z" fill="#0F1923" fill-opacity="0.5"/>
<path d="M4.94 279.9L4.28683 279.143L3.94 279.442V279.9H4.94ZM4.94 333.48H3.94V334.48H4.94L4.94 333.48ZM212.04 333.48H213.04V332.48H212.04V333.48ZM212.04 392H211.04V393H212.04V392ZM299.44 392V393H300.44V392H299.44ZM299.44 333.48V332.48H298.44V333.48H299.44ZM356.82 333.48V334.48H357.82V333.48H356.82ZM356.82 267.74H357.82V266.74H356.82V267.74ZM299.44 267.74H298.44V268.74H299.44V267.74ZM299.44 108.14H300.44V107.14H299.44V108.14ZM204.06 108.14V107.14H203.688L203.407 107.383L204.06 108.14ZM212.04 267.74V268.74H213.04V267.74H212.04ZM108.3 267.74L107.649 266.981L105.597 268.74H108.3V267.74ZM212.04 178.82H213.04V176.646L211.389 178.061L212.04 178.82ZM3.94 279.9L3.94 333.48H5.94L5.94 279.9H3.94ZM4.94 334.48L212.04 334.48V332.48L4.94 332.48L4.94 334.48ZM211.04 333.48V392H213.04V333.48H211.04ZM212.04 393H299.44V391H212.04V393ZM300.44 392V333.48H298.44V392H300.44ZM299.44 334.48H356.82V332.48H299.44V334.48ZM357.82 333.48V267.74H355.82V333.48H357.82ZM356.82 266.74H299.44V268.74H356.82V266.74ZM300.44 267.74L300.44 108.14H298.44L298.44 267.74H300.44ZM299.44 107.14L204.06 107.14V109.14L299.44 109.14V107.14ZM203.407 107.383L4.28683 279.143L5.59317 280.657L204.713 108.897L203.407 107.383ZM212.04 266.74L108.3 266.74V268.74L212.04 268.74V266.74ZM108.951 268.499L212.691 179.579L211.389 178.061L107.649 266.981L108.951 268.499ZM211.04 178.82L211.04 267.74H213.04L213.04 178.82H211.04ZM794.859 244.18C794.859 218.964 789.034 183.714 762.053 154.768C735.059 125.809 687.061 103.34 603.099 103.34V105.34C686.716 105.34 734.098 127.711 760.59 156.132C787.094 184.566 792.859 219.236 792.859 244.18H794.859ZM603.099 103.34H586.379V105.34H603.099V103.34ZM586.379 103.34C502.606 103.34 454.608 125.81 427.568 154.767C400.54 183.712 394.619 218.961 394.619 244.18H396.619C396.619 219.239 402.477 184.568 429.029 156.132C455.569 127.71 502.951 105.34 586.379 105.34V103.34ZM394.619 244.18V255.58H396.619V244.18H394.619ZM394.619 255.58C394.619 280.609 400.54 316.234 427.563 345.605C454.601 374.992 502.599 397.94 586.379 397.94V395.94C502.958 395.94 455.576 373.098 429.034 344.25C402.478 315.386 396.619 280.331 396.619 255.58H394.619ZM586.379 397.94H603.099V395.94H586.379V397.94ZM603.099 397.94C687.257 397.94 735.258 374.897 762.201 345.46C789.129 316.04 794.859 280.414 794.859 255.58H792.859C792.859 280.145 787.188 315.2 760.726 344.11C734.28 373.003 686.9 395.94 603.099 395.94V397.94ZM794.859 255.58V244.18H792.859V255.58H794.859ZM700.139 252.16C700.139 268.108 695.169 286.721 679.601 301.354C664.029 315.991 637.71 326.78 594.739 326.78V328.78C638.027 328.78 664.908 317.909 680.971 302.811C697.038 287.709 702.139 268.512 702.139 252.16H700.139ZM594.739 326.78C551.774 326.78 525.456 315.709 509.882 300.837C494.308 285.964 489.339 267.158 489.339 251.4H487.339C487.339 267.562 492.439 286.945 508.5 302.283C524.561 317.621 551.444 328.78 594.739 328.78V326.78ZM489.339 251.4V246.84H487.339V251.4H489.339ZM489.339 246.84C489.339 231.066 493.842 212.939 509.158 198.743C524.486 184.537 550.801 174.12 594.739 174.12V172.12C550.516 172.12 523.631 182.603 507.799 197.277C491.955 211.961 487.339 230.694 487.339 246.84H489.339ZM594.739 174.12C637.911 174.12 664.231 184.534 679.753 198.748C695.265 212.951 700.139 231.083 700.139 246.84H702.139C702.139 230.677 697.132 211.949 681.104 197.272C665.086 182.605 638.207 172.12 594.739 172.12V174.12ZM700.139 246.84V252.16H702.139V246.84H700.139ZM831.692 279.9L831.039 279.143L830.692 279.442V279.9H831.692ZM831.692 333.48H830.692V334.48H831.692V333.48ZM1038.79 333.48H1039.79V332.48H1038.79V333.48ZM1038.79 392H1037.79V393H1038.79V392ZM1126.19 392V393H1127.19V392H1126.19ZM1126.19 333.48V332.48H1125.19V333.48H1126.19ZM1183.57 333.48V334.48H1184.57V333.48H1183.57ZM1183.57 267.74H1184.57V266.74H1183.57V267.74ZM1126.19 267.74H1125.19V268.74H1126.19V267.74ZM1126.19 108.14H1127.19V107.14H1126.19V108.14ZM1030.81 108.14V107.14H1030.44L1030.16 107.383L1030.81 108.14ZM1038.79 267.74V268.74H1039.79V267.74H1038.79ZM935.052 267.74L934.402 266.981L932.349 268.74H935.052V267.74ZM1038.79 178.82H1039.79V176.646L1038.14 178.061L1038.79 178.82ZM830.692 279.9V333.48H832.692V279.9H830.692ZM831.692 334.48L1038.79 334.48V332.48L831.692 332.48V334.48ZM1037.79 333.48V392H1039.79V333.48H1037.79ZM1038.79 393H1126.19V391H1038.79V393ZM1127.19 392V333.48H1125.19V392H1127.19ZM1126.19 334.48H1183.57V332.48H1126.19V334.48ZM1184.57 333.48V267.74H1182.57V333.48H1184.57ZM1183.57 266.74H1126.19V268.74H1183.57V266.74ZM1127.19 267.74V108.14H1125.19V267.74H1127.19ZM1126.19 107.14L1030.81 107.14V109.14L1126.19 109.14V107.14ZM1030.16 107.383L831.039 279.143L832.345 280.657L1031.47 108.897L1030.16 107.383ZM1038.79 266.74H935.052V268.74H1038.79V266.74ZM935.703 268.499L1039.44 179.579L1038.14 178.061L934.402 266.981L935.703 268.499ZM1037.79 178.82V267.74H1039.79V178.82H1037.79ZM1233.77 109.28V108.28H1232.77V109.28H1233.77ZM1233.77 392H1232.77V393H1233.77V392ZM1322.31 392V393H1323.31V392H1322.31ZM1322.31 297.76V296.76H1321.31V297.76H1322.31ZM1322.31 173.5V172.5H1321.31V173.5H1322.31ZM1322.31 234.3H1321.31V235.3H1322.31V234.3ZM1445.81 298.76C1496.47 298.76 1529.7 288.195 1550.28 271.122C1570.9 254.021 1578.67 230.521 1578.67 205.04H1576.67C1576.67 230.099 1569.05 252.959 1549.01 269.583C1528.93 286.235 1496.24 296.76 1445.81 296.76V298.76ZM1578.67 205.04V201.24H1576.67V205.04H1578.67ZM1578.67 201.24C1578.67 175.199 1571.1 151.881 1550.56 135.106C1530.07 118.365 1496.83 108.28 1445.81 108.28V110.28C1496.63 110.28 1529.32 120.335 1549.3 136.654C1569.23 152.939 1576.67 175.601 1576.67 201.24H1578.67ZM1445.81 108.28L1233.77 108.28V110.28L1445.81 110.28V108.28ZM1232.77 109.28V392H1234.77V109.28H1232.77ZM1233.77 393L1322.31 393V391L1233.77 391V393ZM1323.31 392V297.76H1321.31V392H1323.31ZM1322.31 298.76H1445.81V296.76H1322.31V298.76ZM1322.31 174.5L1444.29 174.5V172.5L1322.31 172.5V174.5ZM1444.29 174.5C1458.45 174.5 1468.45 177.148 1474.89 182.039C1481.29 186.89 1484.33 194.064 1484.33 203.52H1486.33C1486.33 193.596 1483.11 185.76 1476.1 180.446C1469.15 175.172 1458.64 172.5 1444.29 172.5V174.5ZM1484.33 203.52V204.66H1486.33V203.52H1484.33ZM1484.33 204.66C1484.33 214.096 1481.11 221.177 1474.62 225.941C1468.08 230.747 1458.07 233.3 1444.29 233.3V235.3C1458.26 235.3 1468.77 232.723 1475.81 227.554C1482.9 222.343 1486.33 214.604 1486.33 204.66H1484.33ZM1444.29 233.3L1322.31 233.3V235.3L1444.29 235.3V233.3ZM1323.31 234.3V173.5H1321.31V234.3H1323.31ZM1810.73 276.48V277.48H1812.37L1811.62 276.021L1810.73 276.48ZM1703.57 276.48L1702.67 276.037L1701.96 277.48H1703.57V276.48ZM1756.01 170.46L1756.9 170.001L1755.99 168.243L1755.11 170.017L1756.01 170.46ZM1870.01 392L1869.12 392.458L1869.4 393H1870.01V392ZM1965.39 392V393H1967.06L1966.27 391.528L1965.39 392ZM1814.15 109.28L1815.03 108.808L1814.75 108.28H1814.15V109.28ZM1699.39 109.28V108.28H1698.77L1698.49 108.829L1699.39 109.28ZM1556.51 392L1555.61 391.549L1554.88 393H1556.51V392ZM1646.57 392V393H1647.19L1647.46 392.442L1646.57 392ZM1672.03 340.32V339.32H1671.4L1671.13 339.878L1672.03 340.32ZM1843.41 340.32L1844.3 339.862L1844.02 339.32H1843.41V340.32ZM1810.73 275.48H1703.57V277.48H1810.73V275.48ZM1704.46 276.923L1756.9 170.903L1755.11 170.017L1702.67 276.037L1704.46 276.923ZM1755.12 170.919L1809.84 276.939L1811.62 276.021L1756.9 170.001L1755.12 170.919ZM1870.01 393L1965.39 393V391L1870.01 391V393ZM1966.27 391.528L1815.03 108.808L1813.26 109.752L1964.5 392.472L1966.27 391.528ZM1814.15 108.28L1699.39 108.28V110.28L1814.15 110.28V108.28ZM1698.49 108.829L1555.61 391.549L1557.4 392.451L1700.28 109.731L1698.49 108.829ZM1556.51 393L1646.57 393V391L1556.51 391V393ZM1647.46 392.442L1672.92 340.762L1671.13 339.878L1645.67 391.558L1647.46 392.442ZM1672.03 341.32H1843.41V339.32H1672.03V341.32ZM1842.52 340.778L1869.12 392.458L1870.9 391.542L1844.3 339.862L1842.52 340.778ZM2302.21 347.92L2303.13 347.533L2302.51 346.046L2301.45 347.266L2302.21 347.92ZM2313.61 392L2312.62 392.11L2312.71 393H2313.61V392ZM2366.81 392V393H2367.81V392H2366.81ZM2366.81 233.54H2367.81V232.54H2366.81V233.54ZM2167.69 233.54V232.54H2166.69V233.54H2167.69ZM2167.69 287.12H2166.69V288.12H2167.69V287.12ZM2278.65 287.12H2279.65V286.12H2278.65V287.12ZM2270.67 211.88L2269.73 212.213L2269.96 212.88H2270.67V211.88ZM2364.91 211.88V212.88H2365.91V211.88H2364.91ZM2364.91 211.5H2365.91V211.48L2365.91 211.46L2364.91 211.5ZM2166.17 397.94C2253.89 397.94 2290.64 362.826 2302.97 348.574L2301.45 347.266C2289.46 361.134 2253.24 395.94 2166.17 395.94V397.94ZM2301.29 348.307C2306.19 359.991 2311.48 381.937 2312.62 392.11L2314.6 391.89C2313.45 381.543 2308.11 359.409 2303.13 347.533L2301.29 348.307ZM2313.61 393H2366.81V391H2313.61V393ZM2367.81 392V233.54H2365.81V392H2367.81ZM2366.81 232.54L2167.69 232.54V234.54L2366.81 234.54V232.54ZM2166.69 233.54V287.12H2168.69V233.54H2166.69ZM2167.69 288.12H2278.65V286.12H2167.69V288.12ZM2277.65 287.12V287.88H2279.65V287.12H2277.65ZM2277.65 287.88C2277.65 288.647 2277.33 289.858 2276.5 291.439C2275.69 292.999 2274.42 294.849 2272.61 296.875C2269 300.926 2263.29 305.642 2254.95 310.132C2238.26 319.109 2211.07 327.16 2169.21 327.16V329.16C2211.32 329.16 2238.86 321.061 2255.9 311.893C2264.41 307.31 2270.32 302.455 2274.11 298.206C2276 296.082 2277.37 294.098 2278.28 292.365C2279.17 290.652 2279.65 289.108 2279.65 287.88H2277.65ZM2169.21 327.16C2130.42 327.16 2103.98 317.416 2087.25 303.22C2070.54 289.033 2063.43 270.321 2063.43 252.16H2061.43C2061.43 270.859 2068.76 290.147 2085.96 304.745C2103.15 319.334 2130.1 329.16 2169.21 329.16V327.16ZM2063.43 252.16V247.98H2061.43V252.16H2063.43ZM2063.43 247.98C2063.43 228.59 2068.7 209.814 2084.51 195.862C2100.36 181.887 2126.96 172.6 2169.97 172.6V170.6C2126.72 170.6 2099.55 179.932 2083.19 194.363C2066.8 208.816 2061.43 228.23 2061.43 247.98H2063.43ZM2169.97 172.6C2213.93 172.6 2238.32 181.035 2251.97 190.149C2265.57 199.235 2268.61 209.063 2269.73 212.213L2271.61 211.547C2270.44 208.237 2267.21 197.925 2253.08 188.486C2238.99 179.075 2214.16 170.6 2169.97 170.6V172.6ZM2270.67 212.88H2364.91V210.88H2270.67V212.88ZM2365.91 211.88V211.5H2363.91V211.88H2365.91ZM2365.91 211.46C2365.14 192.05 2357.73 164.965 2330.58 142.753C2303.45 120.561 2256.74 103.34 2177.57 103.34V105.34C2256.48 105.34 2302.68 122.509 2329.32 144.302C2355.93 166.075 2363.16 192.57 2363.91 211.54L2365.91 211.46ZM2177.57 103.34L2161.23 103.34V105.34L2177.57 105.34V103.34ZM2161.23 103.34C2079.74 103.34 2031.56 124.57 2003.77 152.897C1975.97 181.218 1968.71 216.469 1968.71 244.18H1970.71C1970.71 216.791 1977.89 182.122 2005.19 154.298C2032.49 126.48 2080.08 105.34 2161.23 105.34V103.34ZM1968.71 244.18V254.82H1970.71V244.18H1968.71ZM1968.71 254.82C1968.71 283.323 1977.6 319.13 2005.81 347.814C2034.02 376.508 2081.43 397.94 2158.19 397.94V395.94C2081.81 395.94 2034.97 374.622 2007.23 346.411C1979.48 318.19 1970.71 282.937 1970.71 254.82H1968.71ZM2158.19 397.94H2166.17V395.94H2158.19V397.94ZM2429.92 109.28V108.28H2428.92V109.28H2429.92ZM2429.92 392H2428.92V393H2429.92V392ZM2731.64 392V393H2732.64V392H2731.64ZM2731.64 326.26H2732.64V325.26H2731.64V326.26ZM2517.32 326.26H2516.32V327.26H2517.32V326.26ZM2517.32 279.9V278.9H2516.32V279.9H2517.32ZM2722.9 279.9V280.9H2723.9V279.9H2722.9ZM2722.9 215.3H2723.9V214.3H2722.9V215.3ZM2517.32 215.3H2516.32V216.3H2517.32V215.3ZM2517.32 173.5V172.5H2516.32V173.5H2517.32ZM2727.84 173.5V174.5H2728.84V173.5H2727.84ZM2727.84 109.28H2728.84V108.28H2727.84V109.28ZM2428.92 109.28V392H2430.92V109.28L2428.92 109.28ZM2429.92 393L2731.64 393V391L2429.92 391V393ZM2732.64 392V326.26H2730.64V392H2732.64ZM2731.64 325.26L2517.32 325.26V327.26L2731.64 327.26V325.26ZM2518.32 326.26V279.9H2516.32V326.26H2518.32ZM2517.32 280.9L2722.9 280.9V278.9L2517.32 278.9V280.9ZM2723.9 279.9V215.3H2721.9V279.9H2723.9ZM2722.9 214.3L2517.32 214.3V216.3L2722.9 216.3V214.3ZM2518.32 215.3V173.5H2516.32V215.3H2518.32ZM2517.32 174.5L2727.84 174.5V172.5L2517.32 172.5V174.5ZM2728.84 173.5V109.28H2726.84V173.5H2728.84ZM2727.84 108.28L2429.92 108.28V110.28L2727.84 110.28V108.28Z" fill="#0F1923" fill-opacity="0.5"/>
</svg>
